<svg width="146" height="43" viewBox="0 0 146 43" fill="none" xmlns="http://www.w3.org/2000/svg">
<path d="M144.577 37.8248C144.577 40.063 142.726 41.876 140.437 41.876H4.95304C2.66491 41.876 0.807617 40.063 0.807617 37.8248V5.51747C0.807617 3.28029 2.66491 1.46094 4.95304 1.46094H140.436C142.726 1.46094 144.576 3.28029 144.576 5.51747L144.577 37.8248Z" fill="white"/>
<path d="M140 1.50928C142.493 1.50928 144.522 3.48722 144.522 5.91797V37.418C144.522 39.8487 142.493 41.8267 140 41.8267H5.38462C2.89154 41.8267 0.862884 39.8487 0.862884 37.418V5.91797C0.862884 3.48722 2.89154 1.50928 5.38462 1.50928H140ZM140 0.667973H5.38462C2.42442 0.667973 0 3.03179 0 5.91797V37.418C0 40.3042 2.42442 42.668 5.38462 42.668H140C142.96 42.668 145.385 40.3042 145.385 37.418V5.91797C145.385 3.03179 142.96 0.667973 140 0.667973Z" fill="#A6A6A6"/>
<path d="M32.446 21.4407C32.4148 18.0565 35.288 16.4101 35.4194 16.3335C33.7922 14.0203 31.27 13.7043 30.3837 13.6791C28.2654 13.4617 26.2106 14.9149 25.1315 14.9149C24.0309 14.9149 22.3692 13.7001 20.5783 13.7358C18.2737 13.7704 16.1177 15.0714 14.9352 17.0916C12.4949 21.2107 14.3149 27.264 16.6529 30.5935C17.8225 32.2242 19.1891 34.0449 20.9779 33.9808C22.7279 33.9105 23.3815 32.893 25.4934 32.893C27.5859 32.893 28.1997 33.9808 30.024 33.9399C31.9022 33.9105 33.0846 32.3019 34.2132 30.6565C35.5648 28.7875 36.1075 26.9469 36.1291 26.8524C36.0849 26.8377 32.4815 25.4968 32.446 21.4407Z" fill="black"/>
<path d="M28.9999 11.4888C29.9411 10.3411 30.5851 8.77976 30.4063 7.19531C29.044 7.25411 27.3403 8.11406 26.3592 9.23651C25.4912 10.2256 24.7159 11.8468 24.9162 13.3714C26.4465 13.4827 28.0177 12.6186 28.9999 11.4888Z" fill="black"/>
<path d="M52.8235 11.1766C52.8235 12.4125 52.4434 13.3428 51.6841 13.9675C50.9809 14.544 49.9815 14.8327 48.6871 14.8327C48.0452 14.8327 47.496 14.8054 47.0361 14.7508V7.99827C47.636 7.90377 48.2821 7.85547 48.98 7.85547C50.2131 7.85547 51.1424 8.11692 51.7692 8.63982C52.4714 9.23097 52.8235 10.0762 52.8235 11.1766ZM51.6335 11.2071C51.6335 10.4059 51.416 9.79167 50.9809 9.36327C50.5458 8.93592 49.9104 8.72172 49.0737 8.72172C48.7183 8.72172 48.4157 8.74482 48.1647 8.79312V13.9266C48.3037 13.9476 48.5578 13.957 48.9272 13.957C49.7909 13.957 50.4575 13.7229 50.9271 13.2546C51.3966 12.7863 51.6335 12.1038 51.6335 11.2071Z" fill="black"/>
<path d="M59.1333 12.2574C59.1333 13.0186 58.9104 13.6423 58.4645 14.1316C57.9971 14.6346 57.3779 14.8855 56.6047 14.8855C55.8594 14.8855 55.2661 14.6451 54.8234 14.1621C54.3819 13.6801 54.1611 13.0722 54.1611 12.3393C54.1611 11.5728 54.3884 10.9438 54.845 10.4556C55.3016 9.96731 55.9154 9.72266 56.6887 9.72266C57.4339 9.72266 58.0327 9.96311 58.4861 10.4451C58.9168 10.9134 59.1333 11.5182 59.1333 12.2574ZM57.9627 12.2931C57.9627 11.8363 57.8614 11.4447 57.6601 11.1181C57.4231 10.7233 57.0861 10.5259 56.6478 10.5259C56.1944 10.5259 55.8497 10.7233 55.6128 11.1181C55.4104 11.4447 55.3102 11.8426 55.3102 12.313C55.3102 12.7698 55.4114 13.1614 55.6128 13.488C55.8573 13.8828 56.1976 14.0802 56.637 14.0802C57.0678 14.0802 57.4059 13.8796 57.6493 13.4775C57.8582 13.1446 57.9627 12.7498 57.9627 12.2931Z" fill="black"/>
<path d="M67.5937 9.82031L66.0052 14.77H64.9714L64.3134 12.6207C64.1464 12.0841 64.0107 11.5507 63.9052 11.0215H63.8847C63.7867 11.5654 63.651 12.0978 63.4766 12.6207L62.7777 14.77H61.732L60.2383 9.82031H61.3981L61.9721 12.1734C62.111 12.7299 62.2252 13.2601 62.3167 13.762H62.3372C62.4212 13.3483 62.5601 12.8212 62.7561 12.1839L63.4766 9.82136H64.3963L65.0866 12.1335C65.2535 12.6973 65.3892 13.2402 65.4937 13.7631H65.5249C65.6014 13.2538 65.7166 12.711 65.8695 12.1335L66.4855 9.82136H67.5937V9.82031Z" fill="black"/>
<path d="M73.444 14.7724H72.3154V11.9374C72.3154 11.0638 71.975 10.627 71.2923 10.627C70.9574 10.627 70.6871 10.7467 70.4771 10.9872C70.2692 11.2276 70.1637 11.5111 70.1637 11.8356V14.7714H69.0351V11.2371C69.0351 10.8024 69.0211 10.3309 68.9941 9.8206H69.986L70.0388 10.5945H70.07C70.2014 10.354 70.3974 10.1556 70.6548 9.997C70.9606 9.8122 71.3031 9.71875 71.6778 9.71875C72.1517 9.71875 72.5458 9.86785 72.8592 10.1671C73.249 10.5336 73.444 11.0806 73.444 11.8072V14.7724V14.7724Z" fill="black"/>
<path d="M76.5572 14.7716H75.4297V7.55078H76.5572V14.7716Z" fill="black"/>
<path d="M83.2016 12.2574C83.2016 13.0186 82.9787 13.6423 82.5329 14.1316C82.0655 14.6346 81.4452 14.8855 80.673 14.8855C79.9267 14.8855 79.3333 14.6451 78.8918 14.1621C78.4503 13.6801 78.2295 13.0722 78.2295 12.3393C78.2295 11.5728 78.4567 10.9438 78.9133 10.4556C79.37 9.96731 79.9838 9.72266 80.756 9.72266C81.5023 9.72266 82.0999 9.96311 82.5544 10.4451C82.9852 10.9134 83.2016 11.5182 83.2016 12.2574ZM82.0299 12.2931C82.0299 11.8363 81.9287 11.4447 81.7273 11.1181C81.4915 10.7233 81.1533 10.5259 80.7161 10.5259C80.2616 10.5259 79.917 10.7233 79.6812 11.1181C79.4787 11.4447 79.3786 11.8426 79.3786 12.313C79.3786 12.7698 79.4798 13.1614 79.6812 13.488C79.9256 13.8828 80.266 14.0802 80.7053 14.0802C81.1361 14.0802 81.4732 13.8796 81.7166 13.4775C81.9266 13.1446 82.0299 12.7498 82.0299 12.2931Z" fill="black"/>
<path d="M88.6638 14.7732H87.6504L87.5664 14.203H87.5352C87.1884 14.6577 86.6941 14.8855 86.0522 14.8855C85.573 14.8855 85.1853 14.7354 84.8935 14.4372C84.6286 14.1663 84.4961 13.8292 84.4961 13.4292C84.4961 12.8244 84.7546 12.3634 85.2747 12.0442C85.7938 11.725 86.5239 11.5686 87.4641 11.5759V11.4835C87.4641 10.8315 87.113 10.506 86.4098 10.506C85.909 10.506 85.4675 10.6288 85.0863 10.8724L84.8569 10.15C85.3286 9.86546 85.9112 9.72266 86.5983 9.72266C87.925 9.72266 88.5906 10.4052 88.5906 11.7702V13.593C88.5906 14.0875 88.6153 14.4813 88.6638 14.7732ZM87.4921 13.0722V12.3088C86.2472 12.2878 85.6247 12.6207 85.6247 13.3063C85.6247 13.5646 85.6958 13.7578 85.8412 13.887C85.9866 14.0161 86.1718 14.0802 86.3926 14.0802C86.6402 14.0802 86.8718 14.0035 87.0829 13.8513C87.295 13.698 87.4253 13.5037 87.4738 13.2654C87.4856 13.2118 87.4921 13.1467 87.4921 13.0722Z" fill="black"/>
<path d="M95.0766 14.7716H94.0751L94.0223 13.9768H93.9911C93.6712 14.5816 93.1263 14.884 92.3606 14.884C91.7489 14.884 91.2395 14.6498 90.8357 14.1815C90.4318 13.7132 90.2305 13.1053 90.2305 12.3587C90.2305 11.5576 90.4491 10.9087 90.8885 10.4131C91.3139 9.95108 91.8351 9.72008 92.4554 9.72008C93.1371 9.72008 93.6142 9.94373 93.8855 10.3921H93.9071V7.55078H95.0368V13.4381C95.0368 13.9201 95.0497 14.3642 95.0766 14.7716ZM93.9071 12.6842V11.8589C93.9071 11.7161 93.8963 11.6006 93.8758 11.5124C93.8123 11.2478 93.6755 11.0252 93.4677 10.8457C93.2577 10.6661 93.0046 10.5758 92.7128 10.5758C92.2917 10.5758 91.9622 10.7386 91.7198 11.0651C91.4797 11.3917 91.358 11.8085 91.358 12.3178C91.358 12.8071 91.4732 13.204 91.7048 13.5095C91.9492 13.835 92.2788 13.9978 92.6912 13.9978C93.0617 13.9978 93.3578 13.8623 93.5829 13.5904C93.8005 13.3394 93.9071 13.037 93.9071 12.6842Z" fill="black"/>
<path d="M104.729 12.2574C104.729 13.0186 104.506 13.6423 104.06 14.1316C103.593 14.6346 102.975 14.8855 102.2 14.8855C101.456 14.8855 100.863 14.6451 100.419 14.1621C99.9776 13.6801 99.7568 13.0722 99.7568 12.3393C99.7568 11.5728 99.9841 10.9438 100.441 10.4556C100.897 9.96731 101.511 9.72266 102.285 9.72266C103.03 9.72266 103.629 9.96311 104.082 10.4451C104.513 10.9134 104.729 11.5182 104.729 12.2574ZM103.559 12.2931C103.559 11.8363 103.458 11.4447 103.257 11.1181C103.019 10.7233 102.683 10.5259 102.243 10.5259C101.791 10.5259 101.447 10.7233 101.209 11.1181C101.006 11.4447 100.906 11.8426 100.906 12.313C100.906 12.7698 101.007 13.1614 101.209 13.488C101.453 13.8828 101.793 14.0802 102.233 14.0802C102.663 14.0802 103.003 13.8796 103.246 13.4775C103.454 13.1446 103.559 12.7498 103.559 12.2931Z" fill="black"/>
<path d="M110.797 14.7724H109.67V11.9374C109.67 11.0638 109.33 10.627 108.646 10.627C108.311 10.627 108.04 10.7467 107.832 10.9872C107.623 11.2276 107.518 11.5111 107.518 11.8356V14.7714H106.388V11.2371C106.388 10.8024 106.376 10.3309 106.349 9.8206H107.339L107.392 10.5945H107.423C107.556 10.354 107.752 10.1556 108.008 9.997C108.315 9.8122 108.656 9.71875 109.032 9.71875C109.505 9.71875 109.899 9.86785 110.213 10.1671C110.604 10.5336 110.797 11.0806 110.797 11.8072V14.7724V14.7724Z" fill="black"/>
<path d="M118.393 10.6468H117.15V13.0513C117.15 13.6624 117.371 13.9679 117.808 13.9679C118.01 13.9679 118.178 13.9511 118.311 13.9165L118.34 14.7512C118.117 14.8331 117.824 14.8741 117.463 14.8741C117.017 14.8741 116.671 14.7418 116.42 14.4772C116.168 14.2126 116.043 13.7674 116.043 13.1426V10.6468H115.301V9.82254H116.043V8.91534L117.149 8.58984V9.82149H118.392V10.6468H118.393Z" fill="black"/>
<path d="M124.368 14.7716H123.238V11.9576C123.238 11.0704 122.898 10.6262 122.216 10.6262C121.693 10.6262 121.335 10.8835 121.139 11.398C121.106 11.5061 121.087 11.6384 121.087 11.7938V14.7706H119.959V7.55078H121.087V10.5338H121.108C121.463 9.99098 121.973 9.72008 122.633 9.72008C123.1 9.72008 123.487 9.86918 123.794 10.1684C124.176 10.5412 124.368 11.0956 124.368 11.8285V14.7716V14.7716Z" fill="black"/>
<path d="M130.531 12.0619C130.531 12.2593 130.516 12.4252 130.489 12.5606H127.104C127.119 13.0499 127.281 13.4227 127.594 13.681C127.881 13.912 128.25 14.0275 128.702 14.0275C129.203 14.0275 129.66 13.9498 130.071 13.7933L130.248 14.5577C129.766 14.7614 129.2 14.8633 128.544 14.8633C127.758 14.8633 127.139 14.6375 126.691 14.186C126.241 13.7345 126.018 13.1287 126.018 12.3685C126.018 11.6219 126.225 11.0003 126.644 10.5047C127.082 9.97554 127.673 9.71094 128.419 9.71094C129.149 9.71094 129.704 9.97554 130.079 10.5047C130.381 10.9247 130.531 11.4445 130.531 12.0619ZM129.454 11.7773C129.463 11.4508 129.388 11.1694 129.235 10.9321C129.039 10.6265 128.741 10.4732 128.337 10.4732C127.969 10.4732 127.668 10.6223 127.439 10.9216C127.252 11.1599 127.141 11.4445 127.104 11.7773H129.454Z" fill="black"/>
<path d="M57.7711 33.7468H55.3254L53.9857 29.6424H49.3291L48.0529 33.7468H45.6719L50.2854 19.7734H53.135L57.7711 33.7468ZM53.5819 27.9204L52.3703 24.2716C52.2422 23.8989 52.002 23.0211 51.6477 21.6393H51.6046C51.4636 22.2336 51.2363 23.1114 50.924 24.2716L49.734 27.9204H53.5819V27.9204Z" fill="black"/>
<path d="M69.6354 28.5857C69.6354 30.2993 69.1605 31.6538 68.2107 32.6481C67.3599 33.5333 66.3034 33.9753 65.0424 33.9753C63.6811 33.9753 62.7033 33.4986 62.1077 32.5452H62.0647V37.853H59.7687V26.9886C59.7687 25.9113 59.7396 24.8057 59.6836 23.6717H61.7028L61.831 25.2687H61.8741C62.6397 24.0654 63.8017 23.4648 65.3611 23.4648C66.5802 23.4648 67.5979 23.9342 68.4121 24.8739C69.2284 25.8147 69.6354 27.0516 69.6354 28.5857ZM67.2964 28.6676C67.2964 27.6869 67.0702 26.8784 66.6157 26.2421C66.1193 25.5785 65.4527 25.2467 64.617 25.2467C64.0505 25.2467 63.5357 25.4315 63.0759 25.7958C62.615 26.1633 62.3134 26.6432 62.1724 27.2375C62.1013 27.5147 62.0657 27.7415 62.0657 27.92V29.6C62.0657 30.3329 62.2962 30.9513 62.7571 31.4564C63.2181 31.9614 63.8168 32.2134 64.5534 32.2134C65.4182 32.2134 66.0913 31.8879 66.5727 31.239C67.0551 30.5891 67.2964 29.7323 67.2964 28.6676Z" fill="black"/>
<path d="M81.5211 28.5857C81.5211 30.2993 81.0462 31.6538 80.0952 32.6481C79.2455 33.5333 78.1891 33.9753 76.928 33.9753C75.5668 33.9753 74.5889 33.4986 73.9945 32.5452H73.9514V37.853H71.6554V26.9886C71.6554 25.9113 71.6263 24.8057 71.5703 23.6717H73.5895L73.7177 25.2687H73.7608C74.5254 24.0654 75.6874 23.4648 77.2479 23.4648C78.4659 23.4648 79.4835 23.9342 80.2999 24.8739C81.1129 25.8147 81.5211 27.0516 81.5211 28.5857ZM79.182 28.6676C79.182 27.6869 78.9548 26.8784 78.5003 26.2421C78.0038 25.5785 77.3394 25.2467 76.5026 25.2467C75.9351 25.2467 75.4214 25.4315 74.9605 25.7958C74.4995 26.1633 74.1991 26.6432 74.058 27.2375C73.988 27.5147 73.9514 27.7415 73.9514 27.92V29.6C73.9514 30.3329 74.1818 30.9513 74.6406 31.4564C75.1015 31.9604 75.7003 32.2134 76.4391 32.2134C77.3039 32.2134 77.9769 31.8879 78.4583 31.239C78.9408 30.5891 79.182 29.7323 79.182 28.6676Z" fill="black"/>
<path d="M94.811 29.8299C94.811 31.0185 94.3878 31.9855 93.5381 32.7321C92.6044 33.5479 91.3045 33.9553 89.6342 33.9553C88.0921 33.9553 86.8558 33.6655 85.9199 33.0849L86.4519 31.219C87.4599 31.8133 88.5659 32.1115 89.771 32.1115C90.6358 32.1115 91.3088 31.9204 91.7924 31.5403C92.2738 31.1602 92.5139 30.6499 92.5139 30.0136C92.5139 29.4466 92.3158 28.9689 91.9184 28.5814C91.5231 28.194 90.863 27.8338 89.9412 27.501C87.4319 26.5885 86.1784 25.2519 86.1784 23.4942C86.1784 22.3455 86.6178 21.4036 87.4976 20.6707C88.3742 19.9368 89.5438 19.5703 91.0062 19.5703C92.3104 19.5703 93.3938 19.7919 94.2585 20.2339L93.6845 22.0588C92.8768 21.6304 91.9636 21.4162 90.9416 21.4162C90.1339 21.4162 89.5028 21.6105 89.0505 21.9969C88.6682 22.3423 88.4765 22.7634 88.4765 23.2621C88.4765 23.8144 88.6952 24.2712 89.1345 24.6303C89.5168 24.9621 90.2115 25.3212 91.2195 25.7086C92.4525 26.1927 93.3582 26.7586 93.9408 27.4075C94.5213 28.0543 94.811 28.8639 94.811 29.8299Z" fill="black"/>
<path d="M102.402 25.3507H99.8712V30.2427C99.8712 31.4869 100.317 32.1085 101.211 32.1085C101.621 32.1085 101.961 32.0739 102.231 32.0046L102.294 33.7045C101.842 33.8694 101.246 33.9523 100.509 33.9523C99.6019 33.9523 98.8933 33.6825 98.3818 33.1438C97.8724 32.6041 97.6161 31.699 97.6161 30.4275V25.3486H96.1084V23.6686H97.6161V21.8238L99.8712 21.1602V23.6686H102.402V25.3507Z" fill="black"/>
<path d="M113.82 28.6295C113.82 30.1783 113.366 31.4498 112.459 32.4441C111.508 33.4679 110.246 33.9782 108.673 33.9782C107.156 33.9782 105.949 33.4878 105.049 32.5071C104.148 31.5264 103.698 30.2885 103.698 28.7964C103.698 27.2351 104.161 25.9562 105.091 24.9619C106.018 23.9665 107.269 23.4688 108.843 23.4688C110.359 23.4688 111.579 23.9591 112.5 24.9409C113.381 25.8932 113.82 27.1228 113.82 28.6295ZM111.438 28.7019C111.438 27.7727 111.235 26.9758 110.822 26.3111C110.341 25.5068 109.653 25.1057 108.761 25.1057C107.838 25.1057 107.137 25.5079 106.655 26.3111C106.243 26.9768 106.039 27.7863 106.039 28.7439C106.039 29.6732 106.243 30.4701 106.655 31.1337C107.152 31.938 107.845 32.3391 108.74 32.3391C109.617 32.3391 110.305 31.9297 110.802 31.1128C111.225 30.4355 111.438 29.6301 111.438 28.7019Z" fill="black"/>
<path d="M121.284 25.6404C121.057 25.5995 120.814 25.5785 120.56 25.5785C119.752 25.5785 119.128 25.8756 118.688 26.471C118.306 26.996 118.114 27.6596 118.114 28.4607V33.7475H115.819L115.841 26.8448C115.841 25.6835 115.812 24.6261 115.755 23.6727H117.755L117.839 25.6005H117.902C118.145 24.938 118.527 24.4046 119.05 24.0045C119.562 23.6444 120.114 23.4648 120.71 23.4648C120.922 23.4648 121.114 23.4795 121.284 23.5058V25.6404Z" fill="black"/>
<path d="M131.552 28.2323C131.552 28.6334 131.525 28.9715 131.468 29.2476H124.58C124.607 30.243 124.94 31.0043 125.58 31.5293C126.16 31.9986 126.911 32.2338 127.832 32.2338C128.852 32.2338 129.783 32.0753 130.62 31.7571L130.979 33.3111C130.001 33.7269 128.847 33.9338 127.515 33.9338C125.912 33.9338 124.654 33.4739 123.739 32.5551C122.826 31.6364 122.368 30.4026 122.368 28.8549C122.368 27.3356 122.794 26.0703 123.645 25.0613C124.537 23.984 125.742 23.4453 127.258 23.4453C128.748 23.4453 129.875 23.984 130.641 25.0613C131.247 25.917 131.552 26.9754 131.552 28.2323ZM129.363 27.6516C129.378 26.988 129.228 26.4147 128.917 25.9307C128.52 25.308 127.909 24.9972 127.087 24.9972C126.337 24.9972 125.726 25.3007 125.26 25.9097C124.877 26.3937 124.65 26.9744 124.58 27.6506H129.363V27.6516Z" fill="black"/>
</svg>
