<?xml version="1.0" encoding="UTF-8"?>
<svg id="_레이어_2" data-name="레이어 2" xmlns="http://www.w3.org/2000/svg" viewBox="0 0 80 72.11">
  <defs>
    <style>
      .cls-1 {
        fill: #fff;
      }

      .cls-2 {
        fill: #68a5fe;
      }
    </style>
  </defs>
  <g id="_레이어_1-2" data-name="레이어 1">
    <path class="cls-2" d="M21.01,52.11c-7.69,0-14.36-5.74-15.5-13.34-.11-.78-.7-4.88-.8-9.82-.2-9.46,1.5-16.19,5.33-21.22C13.28,3.47,17.95.77,23.18.15c.83-.1,1.68-.15,2.53-.15,3.6,0,8.76.93,14.3,4.93C45.54.93,50.7,0,54.3,0c.84,0,1.69.05,2.53.15,5.22.62,9.89,3.32,13.14,7.59,3.83,5.02,5.52,11.77,5.33,21.22-.1,4.94-.69,9.04-.8,9.81-1.16,7.61-7.82,13.34-15.5,13.34-.78,0-1.57-.06-2.36-.18-3.85-.58-7.24-2.58-9.64-5.41-1.78.86-3.73,1.39-5.78,1.54-.35.02-.73.03-1.09.03h-.22c-.37,0-.76,0-1.13-.03-2.04-.15-3.99-.68-5.77-1.54-2.4,2.84-5.79,4.84-9.64,5.42-.78.11-1.57.18-2.36.18Z"/>
    <path class="cls-1" d="M65.5,11.16c-2.32-3.05-5.62-4.96-9.3-5.4-3.76-.45-9.57.27-15.82,6.23-.11.11-.23.22-.34.33-.11-.11-.23-.23-.34-.33-6.25-5.96-12.06-6.67-15.82-6.23-3.68.44-6.99,2.36-9.3,5.4-3.01,3.95-4.34,9.57-4.17,17.68.09,4.71.68,8.65.74,9.08.75,4.96,5.03,8.53,9.9,8.53.5,0,1-.03,1.51-.11,4.75-.71,8.21-4.65,8.51-9.25,1.56,2.96,4.58,5.07,8.16,5.32.24.02.49.02.73.02h.15c.25,0,.5,0,.76-.02,3.59-.26,6.59-2.37,8.16-5.33.29,4.6,3.76,8.54,8.51,9.25.51.08,1.01.11,1.51.11,4.87,0,9.14-3.56,9.9-8.53.07-.43.65-4.37.74-9.08.17-8.11-1.16-13.72-4.17-17.68h0Z"/>
    <path class="cls-2" d="M32.04,29.27c0-2.32,1.04-4.21,2.33-4.21s2.33,1.88,2.33,4.21-1.04,3.28-2.33,3.28-2.33-.96-2.33-3.28Z"/>
    <path class="cls-2" d="M43.38,29.27c0-2.32,1.04-4.21,2.33-4.21s2.33,1.88,2.33,4.21-1.04,3.28-2.33,3.28-2.33-.96-2.33-3.28Z"/>
    <path class="cls-2" d="M1.66,72.08c-.57,0-.98-.17-1.26-.51-.27-.34-.41-.79-.41-1.35v-7.6c0-.83.22-1.43.67-1.83.46-.39,1-.59,1.63-.59.6,0,1.1.2,1.52.59.42.39.73,1.01.93,1.86l1.27,5.53h.42l1.27-5.53c.2-.85.51-1.47.93-1.86.43-.39.95-.59,1.55-.59.63,0,1.17.2,1.61.59.46.39.69,1,.69,1.83v7.6c0,.57-.14,1.02-.42,1.35-.27.34-.69.51-1.26.51s-.96-.17-1.26-.51c-.29-.34-.44-.79-.44-1.35v-4.39c0-.11-.02-.21-.05-.29-.02-.1-.09-.15-.21-.15-.1,0-.17.05-.21.15-.04.09-.08.18-.1.29l-.62,4.11c-.08.45-.17.83-.28,1.16-.1.32-.26.56-.47.73-.22.16-.53.24-.95.24s-.72-.08-.95-.24c-.22-.17-.38-.42-.49-.73-.1-.33-.18-.71-.24-1.16l-.64-4.11c-.01-.11-.04-.21-.08-.29-.04-.1-.12-.15-.23-.15s-.18.05-.21.15c-.03.09-.05.18-.05.29v4.39c0,.57-.15,1.02-.44,1.35-.28.34-.7.51-1.24.51Z"/>
    <path class="cls-2" d="M15.24,72.11c-.5,0-.91-.15-1.22-.46-.32-.3-.47-.69-.47-1.16v-8.63c0-.48.15-.88.46-1.21.32-.33.73-.49,1.24-.49.54,0,.97.16,1.27.49.32.32.47.71.47,1.17v8.66c0,.47-.17.85-.51,1.16-.33.31-.74.46-1.24.46Z"/>
    <path class="cls-2" d="M19.86,72.08c-.54,0-.96-.17-1.24-.51s-.42-.79-.42-1.35v-7.65c0-.57.1-1.02.31-1.37.22-.36.49-.62.83-.78.35-.16.72-.24,1.13-.24.6,0,1.1.16,1.52.47.41.32.73.87.96,1.66l1.76,6.02h.26v-6.26c0-.58.15-1.03.44-1.35.29-.34.71-.51,1.26-.51s.98.17,1.26.51c.28.33.42.78.42,1.35v7.37c0,.91-.2,1.59-.6,2.02-.4.43-.97.65-1.7.65s-1.32-.2-1.73-.59c-.41-.39-.73-.97-.95-1.73l-1.16-3.96c-.02-.11-.07-.21-.13-.29-.05-.1-.13-.15-.23-.15-.12,0-.2.05-.24.15-.04.09-.07.18-.07.29v4.39c0,.57-.14,1.02-.42,1.35-.28.34-.7.51-1.26.51Z"/>
    <path class="cls-2" d="M33.63,60.21c1.29,0,2.35.24,3.16.73.83.48,1.44,1.16,1.83,2.05.4.88.6,1.93.6,3.15,0,2.04-.44,3.54-1.32,4.5-.88.96-2.23,1.44-4.05,1.44h-.72c-.53,0-1.03-.05-1.48-.16-.46-.11-.86-.3-1.21-.59-.35-.29-.62-.7-.82-1.22-.2-.52-.29-1.2-.29-2.02,0-.77.1-1.44.31-2.01.22-.57.47-1.02.77-1.35.29-.34.56-.54.8-.62l-.08-.31h-.28c-.5,0-.9-.16-1.19-.47-.28-.33-.43-.76-.44-1.3-.01-.54.13-.98.42-1.3.3-.34.71-.51,1.21-.51h2.77ZM32.46,67.87c0,.23.05.38.15.47.11.09.27.13.47.13h.88c.55,0,.98-.12,1.29-.36.3-.24.52-.54.64-.91.13-.38.2-.78.2-1.21s-.07-.83-.2-1.22c-.12-.39-.33-.71-.64-.96-.3-.25-.73-.38-1.29-.38h-.88c-.21,0-.36.05-.47.15-.1.09-.15.25-.15.49v3.8Z"/>
    <path class="cls-2" d="M48.7,72.11c-1.07,0-2.03-.22-2.89-.65-.85-.45-1.52-1.1-2.01-1.97-.49-.87-.73-1.94-.73-3.21s.24-2.37.73-3.29c.5-.92,1.18-1.63,2.04-2.12.87-.5,1.86-.75,2.97-.75,1.28,0,2.27.18,2.95.54.69.36,1.03.89,1.03,1.6,0,.54-.15.99-.44,1.35-.29.35-.7.52-1.21.52-.43,0-.86-.05-1.27-.16-.4-.12-.88-.18-1.42-.18-.7,0-1.25.2-1.65.6-.4.4-.6.93-.6,1.58s.2,1.18.6,1.61c.4.42.95.64,1.65.64.37,0,.71-.03,1.01-.08.32-.06.62-.13.91-.19.3-.06.63-.1.98-.1.58,0,1,.19,1.27.57.27.37.41.83.41,1.39s-.2,1.01-.6,1.35c-.4.34-.94.58-1.6.73-.65.15-1.36.23-2.14.23Z"/>
    <path class="cls-2" d="M55.66,72.11c-.5,0-.91-.15-1.22-.46-.32-.3-.47-.69-.47-1.16v-8.63c0-.48.15-.88.46-1.21.32-.33.73-.49,1.24-.49.54,0,.97.16,1.27.49.32.32.47.71.47,1.17v8.66c0,.47-.17.85-.51,1.16-.33.31-.74.46-1.24.46Z"/>
    <path class="cls-2" d="M59.93,63.83c-.54,0-.99-.16-1.34-.47-.34-.32-.51-.75-.51-1.3s.15-.98.46-1.3c.32-.34.78-.51,1.39-.51h7.03c.61,0,1.07.17,1.37.51.32.33.47.76.47,1.3s-.17.99-.52,1.3c-.34.32-.78.47-1.32.47-.37,0-.67-.04-.9-.11-.22-.09-.4-.18-.54-.29-.14-.12-.28-.22-.41-.29-.13-.09-.29-.13-.49-.13l-.15.29c.04.1.12.24.23.42.11.17.21.43.31.77.1.33.15.77.15,1.34v4.71c0,.45-.17.82-.51,1.11-.33.29-.73.44-1.21.44s-.9-.15-1.24-.44c-.33-.29-.49-.66-.49-1.11v-4.71c0-.57.05-1.01.15-1.34.1-.34.2-.59.31-.77.12-.18.2-.33.24-.42l-.16-.29c-.2,0-.36.04-.49.13-.13.08-.27.17-.41.29-.14.11-.32.21-.54.29-.22.08-.52.11-.9.11Z"/>
    <path class="cls-2" d="M69.61,63.35c-.32-.67-.39-1.28-.21-1.81.17-.54.51-.92,1-1.14.5-.22,1.01-.22,1.52,0,.52.21.9.65,1.14,1.32.12.34.21.73.26,1.17.05.43.11.86.18,1.27.08.4.2.74.36,1.01.17.26.44.39.8.39s.63-.13.8-.39c.17-.27.29-.61.36-1.01.08-.41.14-.84.18-1.27.05-.45.14-.84.26-1.17.25-.67.63-1.11,1.14-1.32.51-.22,1.02-.22,1.52,0,.49.22.82.6.99,1.14.17.53.1,1.14-.21,1.81-.16.35-.38.68-.65.99-.26.3-.55.62-.86.95-.32.33-.63.69-.95,1.09-.32.39-.6.84-.86,1.35v2.79c0,.45-.16.82-.49,1.11-.33.29-.73.44-1.22.44s-.89-.15-1.22-.44c-.33-.29-.49-.66-.49-1.11v-2.79c-.25-.51-.53-.96-.85-1.35-.32-.4-.63-.77-.95-1.09-.32-.33-.61-.64-.88-.95-.27-.32-.49-.65-.65-.99Z"/>
  </g>
</svg>