<svg width="146" height="43" viewBox="0 0 146 43" fill="none" xmlns="http://www.w3.org/2000/svg">
<path d="M140.385 42.668H5.76938C2.80919 42.668 0.384766 40.3042 0.384766 37.418V5.91797C0.384766 3.03178 2.80919 0.667971 5.76938 0.667971H140.385C143.345 0.667971 145.769 3.03178 145.769 5.91797V37.418C145.769 40.3042 143.345 42.668 140.385 42.668Z" fill="white"/>
<path d="M140.385 1.50928C142.878 1.50928 144.907 3.48722 144.907 5.91797V37.418C144.907 39.8487 142.878 41.8267 140.385 41.8267H5.76938C3.2763 41.8267 1.24765 39.8487 1.24765 37.418V5.91797C1.24765 3.48722 3.2763 1.50928 5.76938 1.50928H140.385ZM140.385 0.667971H5.76938C2.80919 0.667971 0.384766 3.03178 0.384766 5.91797V37.418C0.384766 40.3042 2.80919 42.668 5.76938 42.668H140.385C143.345 42.668 145.769 40.3042 145.769 37.418V5.91797C145.769 3.03178 143.345 0.667971 140.385 0.667971Z" fill="#A6A6A6"/>
<path d="M11.6225 8.58337C11.3061 8.90625 11.123 9.40894 11.123 10.0599V33.2807C11.123 33.9317 11.3061 34.4344 11.6225 34.7572L11.7005 34.8281L25.0463 21.8213V21.5141L11.7005 8.50725L11.6225 8.58337Z" fill="url(#paint0_linear_146_2951)"/>
<path d="M29.4896 26.1562L25.0459 21.8184V21.5113L29.4949 17.1735L29.5946 17.2299L34.8634 20.1529C36.3671 20.9824 36.3671 22.3474 34.8634 23.1821L29.5946 26.0998L29.4896 26.1562V26.1562Z" fill="url(#paint1_linear_146_2951)"/>
<path d="M29.5946 26.1011L25.0459 21.6662L11.6221 34.7557C12.1215 35.2676 12.9359 35.3293 13.8621 34.8174L29.5946 26.1011" fill="url(#paint2_linear_146_2951)"/>
<path d="M29.5946 17.233L13.8621 8.51672C12.9359 8.0101 12.1215 8.07178 11.6221 8.58366L25.0459 21.668L29.5946 17.233Z" fill="url(#paint3_linear_146_2951)"/>
<path d="M51.4495 11.4266C51.4495 12.3033 51.1803 13.0055 50.6499 13.5292C50.0401 14.15 49.2459 14.4624 48.2726 14.4624C47.3424 14.4624 46.5482 14.1448 45.8966 13.5187C45.2437 12.8835 44.918 12.1038 44.918 11.1707C44.918 10.2375 45.2437 9.45784 45.8966 8.82784C46.5482 8.19653 47.3424 7.87891 48.2726 7.87891C48.7357 7.87891 49.1772 7.97209 49.5985 8.14534C50.0185 8.31991 50.3605 8.55616 50.6082 8.84753L50.0455 9.40141C49.6134 8.90397 49.0251 8.65853 48.2726 8.65853C47.5941 8.65853 47.0059 8.88953 46.5064 9.35547C46.0124 9.82272 45.7647 10.4278 45.7647 11.1707C45.7647 11.9135 46.0124 12.5238 46.5064 12.9911C47.0059 13.4518 47.5941 13.688 48.2726 13.688C48.9928 13.688 49.5985 13.4518 50.0764 12.9858C50.3914 12.6774 50.5705 12.2522 50.6176 11.7088H48.2726V10.9502H51.401C51.4387 11.1142 51.4495 11.273 51.4495 11.4266V11.4266Z" fill="black" stroke="black" stroke-width="0.16" stroke-miterlimit="10"/>
<path d="M56.4132 8.7965H53.4745V10.7915H56.1237V11.5501H53.4745V13.5451H56.4132V14.3182H52.6426V8.02344H56.4132V8.7965Z" fill="black" stroke="black" stroke-width="0.16" stroke-miterlimit="10"/>
<path d="M59.9157 14.3182H59.0837V8.7965H57.2812V8.02344H61.7195V8.7965H59.9157V14.3182V14.3182Z" fill="black" stroke="black" stroke-width="0.16" stroke-miterlimit="10"/>
<path d="M64.9316 14.3182V8.02344H65.7622V14.3182H64.9316Z" fill="black" stroke="black" stroke-width="0.16" stroke-miterlimit="10"/>
<path d="M69.444 14.3182H68.6188V8.7965H66.8096V8.02344H71.2532V8.7965H69.444V14.3182Z" fill="black" stroke="black" stroke-width="0.16" stroke-miterlimit="10"/>
<path d="M79.655 13.5082C79.0183 14.1448 78.2295 14.4624 77.2885 14.4624C76.3421 14.4624 75.5533 14.1448 74.9166 13.5082C74.2812 12.873 73.9648 12.0933 73.9648 11.1707C73.9648 10.248 74.2812 9.46834 74.9166 8.83309C75.5533 8.19653 76.3421 7.87891 77.2885 7.87891C78.2241 7.87891 79.0129 8.19653 79.6497 8.83834C80.2904 9.47884 80.6068 10.2532 80.6068 11.1707C80.6068 12.0933 80.2904 12.873 79.655 13.5082ZM75.5318 12.9806C76.011 13.4518 76.5939 13.688 77.2885 13.688C77.9777 13.688 78.566 13.4518 79.0398 12.9806C79.5177 12.5094 79.76 11.9043 79.76 11.1707C79.76 10.437 79.5177 9.83191 79.0398 9.36072C78.566 8.88953 77.9777 8.65328 77.2885 8.65328C76.5939 8.65328 76.011 8.88953 75.5318 9.36072C75.0539 9.83191 74.8116 10.437 74.8116 11.1707C74.8116 11.9043 75.0539 12.5094 75.5318 12.9806V12.9806Z" fill="black" stroke="black" stroke-width="0.16" stroke-miterlimit="10"/>
<path d="M81.7744 14.3182V8.02344H82.784L85.9233 12.9191H85.9596L85.9233 11.7089V8.02344H86.7539V14.3182H85.8869L82.5996 9.18106H82.5633L82.5996 10.3964V14.3182H81.7744V14.3182Z" fill="black" stroke="black" stroke-width="0.16" stroke-miterlimit="10"/>
<path d="M73.7613 23.508C71.2318 23.508 69.1655 25.3848 69.1655 27.9744C69.1655 30.543 71.2318 32.4395 73.7613 32.4395C76.2961 32.4395 78.3624 30.543 78.3624 27.9744C78.3624 25.3848 76.2961 23.508 73.7613 23.508ZM73.7613 30.6808C72.3734 30.6808 71.1793 29.5638 71.1793 27.9744C71.1793 26.364 72.3734 25.2667 73.7613 25.2667C75.1491 25.2667 76.3486 26.364 76.3486 27.9744C76.3486 29.5638 75.1491 30.6808 73.7613 30.6808V30.6808ZM63.7338 23.508C61.1989 23.508 59.138 25.3848 59.138 27.9744C59.138 30.543 61.1989 32.4395 63.7338 32.4395C66.2672 32.4395 68.3295 30.543 68.3295 27.9744C68.3295 25.3848 66.2672 23.508 63.7338 23.508ZM63.7338 30.6808C62.3445 30.6808 61.1465 29.5638 61.1465 27.9744C61.1465 26.364 62.3445 25.2667 63.7338 25.2667C65.1216 25.2667 66.3157 26.364 66.3157 27.9744C66.3157 29.5638 65.1216 30.6808 63.7338 30.6808ZM51.8015 24.8769V26.7748H56.4497C56.3138 27.8353 55.9503 28.6149 55.393 29.1583C54.7145 29.8145 53.6578 30.543 51.8015 30.543C48.9409 30.543 46.7009 28.292 46.7009 25.503C46.7009 22.7139 48.9409 20.463 51.8015 20.463C53.3482 20.463 54.4736 21.0523 55.3041 21.8162L56.6759 20.4787C55.5141 19.3972 53.9688 18.5664 51.8015 18.5664C47.8788 18.5664 44.582 21.6784 44.582 25.503C44.582 29.3276 47.8788 32.4395 51.8015 32.4395C53.9216 32.4395 55.5141 31.7623 56.7661 30.4918C58.049 29.241 58.4488 27.4822 58.4488 26.0621C58.4488 25.6211 58.4111 25.2155 58.3438 24.8769H51.8015ZM100.594 26.3482C100.216 25.3494 99.0488 23.508 96.6714 23.508C94.3157 23.508 92.3543 25.3179 92.3543 27.9744C92.3543 30.476 94.2955 32.4395 96.8976 32.4395C99.0016 32.4395 100.216 31.1887 100.715 30.4603L99.1538 29.4457C98.6328 30.1886 97.9234 30.6808 96.8976 30.6808C95.8786 30.6808 95.1476 30.2253 94.6791 29.3276L100.805 26.8562L100.594 26.3482V26.3482ZM94.348 27.8353C94.2955 26.1133 95.7197 25.2313 96.7401 25.2313C97.5397 25.2313 98.2182 25.6211 98.4443 26.1789L94.348 27.8353V27.8353ZM89.3686 32.1678H91.3824V19.0429H89.3686V32.1678ZM86.0705 24.5028H86.0032C85.5509 23.9805 84.688 23.508 83.5949 23.508C81.3011 23.508 79.2038 25.4715 79.2038 27.9888C79.2038 30.4918 81.3011 32.4395 83.5949 32.4395C84.688 32.4395 85.5509 31.9631 86.0032 31.425H86.0705V32.0655C86.0705 33.773 85.1349 34.6905 83.6259 34.6905C82.3955 34.6905 81.6322 33.8242 81.3172 33.0958L79.5659 33.8085C80.0707 34.9923 81.4074 36.4492 83.6259 36.4492C85.987 36.4492 87.9793 35.0947 87.9793 31.799V23.7797H86.0705V24.5028V24.5028ZM83.7672 30.6808C82.3793 30.6808 81.2176 29.5481 81.2176 27.9888C81.2176 26.4152 82.3793 25.2667 83.7672 25.2667C85.1349 25.2667 86.2132 26.4152 86.2132 27.9888C86.2132 29.5481 85.1349 30.6808 83.7672 30.6808V30.6808ZM110.023 19.0429H105.206V32.1678H107.215V27.1948H110.023C112.253 27.1948 114.441 25.6211 114.441 23.1182C114.441 20.6165 112.248 19.0429 110.023 19.0429V19.0429ZM110.075 25.3691H107.215V20.8685H110.075C111.575 20.8685 112.431 22.0826 112.431 23.1182C112.431 24.134 111.575 25.3691 110.075 25.3691ZM122.491 23.483C121.04 23.483 119.53 24.1078 118.91 25.4925L120.692 26.2209C121.076 25.4925 121.781 25.2562 122.527 25.2562C123.569 25.2562 124.626 25.8665 124.642 26.9441V27.0819C124.278 26.8772 123.5 26.574 122.543 26.574C120.624 26.574 118.668 27.6043 118.668 29.5271C118.668 31.2858 120.24 32.4185 122.007 32.4185C123.359 32.4185 124.105 31.824 124.573 31.1323H124.642V32.1468H126.582V27.1121C126.582 24.785 124.799 23.483 122.491 23.483ZM122.248 30.6755C121.591 30.6755 120.676 30.3579 120.676 29.5638C120.676 28.548 121.818 28.1582 122.806 28.1582C123.69 28.1582 124.105 28.3485 124.642 28.5992C124.484 29.8145 123.411 30.6755 122.248 30.6755V30.6755ZM133.649 23.7705L131.34 29.4602H131.272L128.885 23.7705H126.719L130.305 31.7216L128.259 36.146H130.358L135.884 23.7705H133.649V23.7705ZM115.545 32.1678H117.558V19.0429H115.545V32.1678Z" fill="black"/>
<defs>
<linearGradient id="paint0_linear_146_2951" x1="23.8614" y1="33.5225" x2="6.2455" y2="15.4549" gradientUnits="userSpaceOnUse">
<stop stop-color="#00A0FF"/>
<stop offset="0.0066" stop-color="#00A1FF"/>
<stop offset="0.2601" stop-color="#00BEFF"/>
<stop offset="0.5122" stop-color="#00D2FF"/>
<stop offset="0.7604" stop-color="#00DFFF"/>
<stop offset="1" stop-color="#00E3FF"/>
</linearGradient>
<linearGradient id="paint1_linear_146_2951" x1="36.8214" y1="21.6634" x2="10.7632" y2="21.6634" gradientUnits="userSpaceOnUse">
<stop stop-color="#FFE000"/>
<stop offset="0.4087" stop-color="#FFBD00"/>
<stop offset="0.7754" stop-color="#FFA500"/>
<stop offset="1" stop-color="#FF9C00"/>
</linearGradient>
<linearGradient id="paint2_linear_146_2951" x1="27.1211" y1="19.2553" x2="3.23259" y2="-5.24581" gradientUnits="userSpaceOnUse">
<stop stop-color="#FF3A44"/>
<stop offset="1" stop-color="#C31162"/>
</linearGradient>
<linearGradient id="paint3_linear_146_2951" x1="8.24301" y1="42.483" x2="18.9103" y2="31.5422" gradientUnits="userSpaceOnUse">
<stop stop-color="#32A071"/>
<stop offset="0.0685" stop-color="#2DA771"/>
<stop offset="0.4762" stop-color="#15CF74"/>
<stop offset="0.8009" stop-color="#06E775"/>
<stop offset="1" stop-color="#00F076"/>
</linearGradient>
</defs>
</svg>
